<?xml version="1.0" encoding="UTF-8"?>
<!DOCTYPE svg PUBLIC "-//W3C//DTD SVG 1.0//EN" "http://www.w3.org/TR/2001/REC-SVG-20010904/DTD/svg10.dtd">
<!-- Creator: CorelDRAW X8 -->
<svg xmlns="http://www.w3.org/2000/svg" xml:space="preserve" width="100%" height="100%" version="1.0" style="shape-rendering:geometricPrecision; text-rendering:geometricPrecision; image-rendering:optimizeQuality; fill-rule:evenodd; clip-rule:evenodd"
viewBox="0 0 1050 1050"
 xmlns:xlink="http://www.w3.org/1999/xlink">
 <defs>
  <style type="text/css">
   <![CDATA[
    .fil1 {fill:none}
    .fil0 {fill:#848688}
   ]]>
  </style>
 </defs>
 <g id="Layer_x0020_1">
  <metadata id="CorelCorpID_0Corel-Layer"/>
  <path class="fil0" d="M788 468l0 106 158 0 0 209 -158 0 0 158 -209 0 0 -158 -107 0 0 158 -209 0 0 -158 -157 0 0 -53 -1 0 0 -105 1 0 0 -51 157 0 0 -106 -157 0 0 -52 -1 0 0 -105 1 0 0 -53 157 0 0 -157 209 0 0 157 107 0 0 -157 209 0 0 157 158 0 0 210 -158 0zm-316 106l107 0 0 -106 -107 0 0 106z"/>
  <rect class="fil1" width="1050" height="1050"/>
 </g>
</svg>
