<?xml version="1.0" encoding="UTF-8"?>
<!DOCTYPE svg PUBLIC "-//W3C//DTD SVG 1.0//EN" "http://www.w3.org/TR/2001/REC-SVG-20010904/DTD/svg10.dtd">
<!-- Creator: CorelDRAW X8 -->
<svg xmlns="http://www.w3.org/2000/svg" xml:space="preserve" width="100%" height="100%" version="1.0" style="shape-rendering:geometricPrecision; text-rendering:geometricPrecision; image-rendering:optimizeQuality; fill-rule:evenodd; clip-rule:evenodd"
viewBox="0 0 840 841"
 xmlns:xlink="http://www.w3.org/1999/xlink">
 <defs>
  <style type="text/css">
   <![CDATA[
    .fil0 {fill:#848688}
   ]]>
  </style>
 </defs>
 <g id="Layer_x0020_1">
  <metadata id="CorelCorpID_0Corel-Layer"/>
  <path class="fil0" d="M264 526c-29,0 -52,23 -52,52 0,28 23,51 52,52 105,0 210,1 314,1 29,0 52,-24 52,-53 0,-29 -23,-52 -52,-52 -27,0 -256,0 -314,0zm0 315c-82,0 -155,-38 -203,-96 -38,-46 -61,-104 -61,-167 0,-93 48,-174 121,-221 -11,-29 -17,-61 -17,-95 0,-144 118,-262 263,-262 35,0 73,0 108,0 127,0 233,90 257,210 -158,0 -208,0 -365,0 -29,0 -53,24 -53,52 0,29 24,53 53,53l211 0c28,0 52,-23 52,-52l210 0c0,57 -18,112 -52,158 34,46 52,100 52,157 0,88 0,175 0,262 -48,0 -92,-13 -131,-35 -37,22 -81,35 -128,36 -111,0 -202,0 -317,0z"/>
 </g>
</svg>
