<?xml version="1.0" encoding="UTF-8"?>
<!DOCTYPE svg PUBLIC "-//W3C//DTD SVG 1.0//EN" "http://www.w3.org/TR/2001/REC-SVG-20010904/DTD/svg10.dtd">
<!-- Creator: CorelDRAW X8 -->
<svg xmlns="http://www.w3.org/2000/svg" xml:space="preserve" width="100%" height="100%" version="1.0" style="shape-rendering:geometricPrecision; text-rendering:geometricPrecision; image-rendering:optimizeQuality; fill-rule:evenodd; clip-rule:evenodd"
viewBox="0 0 1050 1050"
 xmlns:xlink="http://www.w3.org/1999/xlink">
 <defs>
  <style type="text/css">
   <![CDATA[
    .fil0 {fill:none}
    .fil1 {fill:#848688}
   ]]>
  </style>
 </defs>
 <g id="Layer_x0020_1">
  <metadata id="CorelCorpID_0Corel-Layer"/>
  <rect class="fil0" width="1050" height="1050"/>
  <path class="fil1" d="M368 631c-28,0 -51,23 -51,52 0,28 23,51 51,52 105,0 210,1 314,1 29,0 53,-24 53,-53 0,-29 -24,-52 -53,-52 -26,0 -255,0 -314,0zm0 315c-81,0 -154,-38 -202,-96 -38,-46 -61,-104 -61,-167 0,-93 48,-174 121,-221 -11,-29 -17,-61 -17,-95 0,-145 117,-262 262,-262 35,0 73,0 108,0 127,0 233,90 258,210 -158,0 -208,0 -366,0 -29,0 -52,23 -52,52 0,29 23,53 52,53l211 0c29,0 52,-23 53,-52l210 0c0,57 -18,112 -53,158 35,46 53,100 53,157 0,87 0,175 0,262 -48,0 -92,-13 -131,-35 -38,22 -81,35 -128,36 -111,0 -203,0 -318,0z"/>
 </g>
</svg>
