<?xml version="1.0" encoding="UTF-8"?>
<!DOCTYPE svg PUBLIC "-//W3C//DTD SVG 1.0//EN" "http://www.w3.org/TR/2001/REC-SVG-20010904/DTD/svg10.dtd">
<!-- Creator: CorelDRAW X8 -->
<svg xmlns="http://www.w3.org/2000/svg" xml:space="preserve" width="100%" height="100%" version="1.0" style="shape-rendering:geometricPrecision; text-rendering:geometricPrecision; image-rendering:optimizeQuality; fill-rule:evenodd; clip-rule:evenodd"
viewBox="0 0 840 840"
 xmlns:xlink="http://www.w3.org/1999/xlink">
 <defs>
  <style type="text/css">
   <![CDATA[
    .fil0 {fill:#848688}
   ]]>
  </style>
 </defs>
 <g id="Layer_x0020_1">
  <metadata id="CorelCorpID_0Corel-Layer"/>
  <path class="fil0" d="M578 525l-3 0 0 0 -102 0 -258 0c25,-120 131,-210 258,-210 3,0 6,0 10,0l95 0 0 0c28,0 52,-23 52,-52 0,-29 -24,-53 -52,-53l-258 0 0 0 -57 0c-29,0 -52,23 -53,51l0 0 0 2 -210 0c0,-145 118,-263 263,-263l0 0 316 0 0 0c144,1 261,118 261,263 0,145 -126,262 -262,262zm-51 105l-210 0 0 210 210 0 0 -210z"/>
 </g>
</svg>
