<?xml version="1.0" encoding="UTF-8"?>
<!DOCTYPE svg PUBLIC "-//W3C//DTD SVG 1.0//EN" "http://www.w3.org/TR/2001/REC-SVG-20010904/DTD/svg10.dtd">
<!-- Creator: CorelDRAW X8 -->
<svg xmlns="http://www.w3.org/2000/svg" xml:space="preserve" width="100%" height="100%" version="1.0" style="shape-rendering:geometricPrecision; text-rendering:geometricPrecision; image-rendering:optimizeQuality; fill-rule:evenodd; clip-rule:evenodd"
viewBox="0 0 1050 1050"
 xmlns:xlink="http://www.w3.org/1999/xlink">
 <defs>
  <style type="text/css">
   <![CDATA[
    .fil1 {fill:none}
    .fil0 {fill:#848688}
   ]]>
  </style>
 </defs>
 <g id="Layer_x0020_1">
  <metadata id="CorelCorpID_0Corel-Layer"/>
  <path class="fil0" d="M107 678l0 -315c0,-145 117,-262 262,-262 10,0 20,0 30,1l0 -1 285 0 4 0 0 0c143,2 259,119 259,262l0 315 0 0c0,144 -116,261 -259,263l0 0 -289 0 0 -2c-9,1 -19,2 -29,2 -145,0 -262,-118 -262,-263l-1 0zm210 -315l0 58 0 199 0 58 1 0c0,29 23,53 52,53l57 0 0 0 257 0c29,0 53,-24 53,-53l0 0 0 -58 0 -199 0 -58 0 0c0,-29 -24,-52 -53,-52l0 0 -57 0 -200 0 -28 0 -30 0 0 0c-29,0 -52,23 -52,52l0 0z"/>
  <rect class="fil1" width="1050" height="1050"/>
 </g>
</svg>
