<?xml version="1.0" encoding="UTF-8"?>
<!DOCTYPE svg PUBLIC "-//W3C//DTD SVG 1.0//EN" "http://www.w3.org/TR/2001/REC-SVG-20010904/DTD/svg10.dtd">
<!-- Creator: CorelDRAW X8 -->
<svg xmlns="http://www.w3.org/2000/svg" xml:space="preserve" width="100%" height="100%" version="1.0" style="shape-rendering:geometricPrecision; text-rendering:geometricPrecision; image-rendering:optimizeQuality; fill-rule:evenodd; clip-rule:evenodd"
viewBox="0 0 840 840"
 xmlns:xlink="http://www.w3.org/1999/xlink">
 <defs>
  <style type="text/css">
   <![CDATA[
    .fil0 {fill:#848688}
   ]]>
  </style>
 </defs>
 <g id="Layer_x0020_1">
  <metadata id="CorelCorpID_0Corel-Layer"/>
  <path class="fil0" d="M320 525l0 0 258 0 0 0c29,0 52,24 52,52 0,29 -23,53 -52,53l-258 0 0 0 -320 0 0 210 578 0 0 0c145,0 262,-118 262,-263 0,-59 -19,-113 -52,-157 33,-44 52,-98 52,-158 0,-144 -117,-261 -261,-262l0 0 -1 0 -578 0 0 210 320 0 258 0 0 0c29,0 52,24 52,52 0,29 -23,53 -52,53l-258 0 0 0 -320 0 0 210 320 0z"/>
 </g>
</svg>
