<?xml version="1.0" encoding="UTF-8"?>
<!DOCTYPE svg PUBLIC "-//W3C//DTD SVG 1.0//EN" "http://www.w3.org/TR/2001/REC-SVG-20010904/DTD/svg10.dtd">
<!-- Creator: CorelDRAW X8 -->
<svg xmlns="http://www.w3.org/2000/svg" xml:space="preserve" width="100%" height="100%" version="1.0" style="shape-rendering:geometricPrecision; text-rendering:geometricPrecision; image-rendering:optimizeQuality; fill-rule:evenodd; clip-rule:evenodd"
viewBox="0 0 840 840"
 xmlns:xlink="http://www.w3.org/1999/xlink">
 <defs>
  <style type="text/css">
   <![CDATA[
    .fil0 {fill:#848688}
   ]]>
  </style>
 </defs>
 <g id="Layer_x0020_1">
  <metadata id="CorelCorpID_0Corel-Layer"/>
  <path class="fil0" d="M521 525l0 0 -257 0 0 0c-29,0 -53,24 -53,52 0,29 24,53 53,53l56 0 0 0 258 0c28,0 52,-24 52,-53 0,-28 -24,-52 -52,-52l0 0 -57 0zm60 315l-289 0 0 -2c-9,1 -19,2 -28,2 -145,0 -263,-118 -263,-263 0,-58 19,-113 52,-156 -33,-44 -53,-99 -53,-159 0,-144 118,-262 263,-262 10,0 20,1 29,2l0 -2 285 0 5 0 0 0c143,2 258,119 258,262 0,60 -20,114 -52,158 32,44 52,98 52,157 0,144 -116,261 -259,263l0 0zm-61 -630l57 0 0 0c29,0 53,24 53,52 0,29 -24,53 -53,53l-57 0 -200 0 -57 0c-29,0 -53,-24 -53,-53 0,-28 24,-52 53,-52l0 0 29 0 28 0 200 0z"/>
 </g>
</svg>
