<?xml version="1.0" encoding="UTF-8"?>
<!DOCTYPE svg PUBLIC "-//W3C//DTD SVG 1.0//EN" "http://www.w3.org/TR/2001/REC-SVG-20010904/DTD/svg10.dtd">
<!-- Creator: CorelDRAW X8 -->
<svg xmlns="http://www.w3.org/2000/svg" xml:space="preserve" width="100%" height="100%" version="1.0" style="shape-rendering:geometricPrecision; text-rendering:geometricPrecision; image-rendering:optimizeQuality; fill-rule:evenodd; clip-rule:evenodd"
viewBox="0 0 840 840"
 xmlns:xlink="http://www.w3.org/1999/xlink">
 <defs>
  <style type="text/css">
   <![CDATA[
    .fil0 {fill:#848688}
   ]]>
  </style>
 </defs>
 <g id="Layer_x0020_1">
  <metadata id="CorelCorpID_0Corel-Layer"/>
  <path class="fil0" d="M264 210l128 0 129 0c-24,-120 -130,-210 -257,-210 -127,0 -233,90 -258,210l258 0z"/>
  <path class="fil0" d="M262 840c60,0 114,-20 158,-53 44,33 98,53 158,53 144,0 262,-118 262,-263l0 -314c-1,-146 -116,-263 -263,-263 -104,0 -209,0 -313,0 -146,0 -264,117 -264,262l210 0c3,-29 21,-52 53,-52 105,0 210,0 314,0 29,0 52,23 53,51 0,105 0,211 0,316l0 0 0 2 0 0 0 1 0 1 0 0 0 1 0 0c-2,27 -26,48 -55,48 -21,0 -41,-11 -50,-30l0 -285 -263 0c-145,2 -262,116 -262,262 0,145 118,263 262,263zm0 -210c30,0 53,-23 53,-53l0 -52 -52 0c-29,0 -53,23 -53,52 0,30 23,53 52,53z"/>
 </g>
</svg>
