<?xml version="1.0" encoding="UTF-8"?>
<!DOCTYPE svg PUBLIC "-//W3C//DTD SVG 1.0//EN" "http://www.w3.org/TR/2001/REC-SVG-20010904/DTD/svg10.dtd">
<!-- Creator: CorelDRAW X8 -->
<svg xmlns="http://www.w3.org/2000/svg" xml:space="preserve" width="100%" height="100%" version="1.0" style="shape-rendering:geometricPrecision; text-rendering:geometricPrecision; image-rendering:optimizeQuality; fill-rule:evenodd; clip-rule:evenodd"
viewBox="0 0 1050 1050"
 xmlns:xlink="http://www.w3.org/1999/xlink">
 <defs>
  <style type="text/css">
   <![CDATA[
    .fil0 {fill:none}
    .fil1 {fill:#848688}
   ]]>
  </style>
 </defs>
 <g id="Layer_x0020_1">
  <metadata id="CorelCorpID_0Corel-Layer"/>
  <rect class="fil0" width="1050" height="1050"/>
  <path class="fil1" d="M369 315l128 0 129 0c-24,-120 -130,-210 -257,-210 -128,0 -234,90 -258,210l258 0z"/>
  <path class="fil1" d="M367 945c59,0 114,-19 158,-52 44,33 98,52 157,52 145,0 263,-118 263,-263l0 -314c-1,-146 -116,-263 -263,-263 -104,0 -209,0 -313,0 -146,0 -264,117 -264,263l210 0c3,-30 21,-53 52,-53 105,0 210,0 315,0 29,0 52,23 53,51 0,106 0,211 0,316l0 1 0 1 0 0 0 1 0 1 0 0 0 1 0 0c-3,27 -26,48 -55,48 -21,0 -41,-11 -50,-30l0 -285 -263 0c-145,2 -262,116 -262,263 0,145 117,262 262,262zm0 -210c29,0 53,-23 53,-52l0 -53 -52 0c-30,0 -53,23 -53,53 0,29 23,52 52,52z"/>
 </g>
</svg>
