<?xml version="1.0" encoding="UTF-8"?>
<!DOCTYPE svg PUBLIC "-//W3C//DTD SVG 1.0//EN" "http://www.w3.org/TR/2001/REC-SVG-20010904/DTD/svg10.dtd">
<!-- Creator: CorelDRAW X8 -->
<svg xmlns="http://www.w3.org/2000/svg" xml:space="preserve" width="100%" height="100%" version="1.0" style="shape-rendering:geometricPrecision; text-rendering:geometricPrecision; image-rendering:optimizeQuality; fill-rule:evenodd; clip-rule:evenodd"
viewBox="0 0 840 840"
 xmlns:xlink="http://www.w3.org/1999/xlink">
 <defs>
  <style type="text/css">
   <![CDATA[
    .fil0 {fill:#848688}
   ]]>
  </style>
 </defs>
 <g id="Layer_x0020_1">
  <metadata id="CorelCorpID_0Corel-Layer"/>
  <path class="fil0" d="M0 0l210 0 368 0c144,0 262,118 262,262 0,60 -20,114 -52,158 32,44 52,98 52,157 0,145 -118,263 -262,263l0 0 -368 0 -210 0 0 -210 0 -105 0 -210 0 -105 0 -210zm210 630l110 0 0 0 258 0c28,0 52,-24 52,-53 0,-29 -24,-52 -52,-52l0 0 -258 0 0 0 -110 0 0 105zm0 -315l110 0 0 0 258 0c28,0 52,-24 52,-53 0,-28 -24,-52 -52,-52l0 0 -258 0 -110 0 0 105z"/>
 </g>
</svg>
