<?xml version="1.0" encoding="UTF-8"?>
<!DOCTYPE svg PUBLIC "-//W3C//DTD SVG 1.0//EN" "http://www.w3.org/TR/2001/REC-SVG-20010904/DTD/svg10.dtd">
<!-- Creator: CorelDRAW X8 -->
<svg xmlns="http://www.w3.org/2000/svg" xml:space="preserve" width="100%" height="100%" version="1.0" style="shape-rendering:geometricPrecision; text-rendering:geometricPrecision; image-rendering:optimizeQuality; fill-rule:evenodd; clip-rule:evenodd"
viewBox="0 0 1050 1050"
 xmlns:xlink="http://www.w3.org/1999/xlink">
 <defs>
  <style type="text/css">
   <![CDATA[
    .fil1 {fill:none}
    .fil0 {fill:#848688}
   ]]>
  </style>
 </defs>
 <g id="Layer_x0020_1">
  <metadata id="CorelCorpID_0Corel-Layer"/>
  <path class="fil0" d="M105 105l210 0c122,0 245,0 367,0 145,0 263,117 263,262 0,145 -118,263 -263,263l-367 0 0 105 0 210 -210 0 0 -210 0 -105 0 -210 0 -105 0 -210zm577 210l-257 0 -110 0 0 105 110 0 0 0 257 0c29,0 53,-24 53,-53 0,-28 -24,-52 -53,-52l0 0z"/>
  <rect class="fil1" width="1050" height="1050"/>
 </g>
</svg>
