<?xml version="1.0" encoding="UTF-8"?>
<!DOCTYPE svg PUBLIC "-//W3C//DTD SVG 1.0//EN" "http://www.w3.org/TR/2001/REC-SVG-20010904/DTD/svg10.dtd">
<!-- Creator: CorelDRAW X8 -->
<svg xmlns="http://www.w3.org/2000/svg" xml:space="preserve" width="100%" height="100%" version="1.0" style="shape-rendering:geometricPrecision; text-rendering:geometricPrecision; image-rendering:optimizeQuality; fill-rule:evenodd; clip-rule:evenodd"
viewBox="0 0 840 840"
 xmlns:xlink="http://www.w3.org/1999/xlink">
 <defs>
  <style type="text/css">
   <![CDATA[
    .fil0 {fill:#848688}
   ]]>
  </style>
 </defs>
 <g id="Layer_x0020_1">
  <metadata id="CorelCorpID_0Corel-Layer"/>
  <path class="fil0" d="M420 0c232,0 420,188 420,420 0,77 -21,150 -57,212l57 58 0 150 -147 0 -34 -34 0 1 -26 -25c-62,37 -135,58 -213,58 -232,0 -420,-188 -420,-420 0,-232 188,-420 420,-420zm182 454l1 -1 20 20c5,-17 7,-35 7,-53 0,-116 -94,-210 -210,-210 -116,0 -210,94 -210,210 0,116 94,210 210,210 19,0 37,-3 54,-7l-52 -53 0 -150 147 0 33 34z"/>
 </g>
</svg>
