<?xml version="1.0" encoding="UTF-8"?>
<!DOCTYPE svg PUBLIC "-//W3C//DTD SVG 1.0//EN" "http://www.w3.org/TR/2001/REC-SVG-20010904/DTD/svg10.dtd">
<!-- Creator: CorelDRAW X8 -->
<svg xmlns="http://www.w3.org/2000/svg" xml:space="preserve" width="100%" height="100%" version="1.0" style="shape-rendering:geometricPrecision; text-rendering:geometricPrecision; image-rendering:optimizeQuality; fill-rule:evenodd; clip-rule:evenodd"
viewBox="0 0 1050 1050"
 xmlns:xlink="http://www.w3.org/1999/xlink">
 <defs>
  <style type="text/css">
   <![CDATA[
    .fil0 {fill:none}
    .fil1 {fill:#848688}
   ]]>
  </style>
 </defs>
 <g id="Layer_x0020_1">
  <metadata id="CorelCorpID_0Corel-Layer"/>
  <rect class="fil0" width="1050" height="1050"/>
  <path class="fil1" d="M627 420l0 0 -258 0c-29,0 -52,-24 -52,-53 0,-28 23,-52 52,-52l0 0 258 0 320 0 0 -210 -578 0 -1 0 0 0c-144,1 -261,118 -261,262 0,145 117,262 261,263l0 0 59 0 0 0 257 0 0 0c29,0 53,24 53,52 0,29 -24,53 -53,53l-257 0 0 0 -320 0 0 210 577 0c145,0 263,-118 263,-263 0,-144 -118,-262 -263,-262l0 0 -57 0z"/>
 </g>
</svg>
