<?xml version="1.0" encoding="UTF-8"?>
<!DOCTYPE svg PUBLIC "-//W3C//DTD SVG 1.0//EN" "http://www.w3.org/TR/2001/REC-SVG-20010904/DTD/svg10.dtd">
<!-- Creator: CorelDRAW X8 -->
<svg xmlns="http://www.w3.org/2000/svg" xml:space="preserve" width="100%" height="100%" version="1.0" style="shape-rendering:geometricPrecision; text-rendering:geometricPrecision; image-rendering:optimizeQuality; fill-rule:evenodd; clip-rule:evenodd"
viewBox="0 0 1057 1057"
 xmlns:xlink="http://www.w3.org/1999/xlink">
 <defs>
  <style type="text/css">
   <![CDATA[
    .str0 {stroke:black;stroke-width:6.94488}
    .fil1 {fill:none}
    .fil0 {fill:#848688}
   ]]>
  </style>
 </defs>
 <g id="Layer_x0020_1">
  <metadata id="CorelCorpID_0Corel-Layer"/>
  <path class="fil0" d="M425 425l-52 0c-29,0 -52,-23 -52,-52 0,-29 23,-53 52,-53l0 0 52 0 0 105zm210 -105l315 0 0 -210 -315 0 0 -105 -210 0 0 105 -52 0 -1 0 0 0c-145,1 -262,118 -262,263 0,144 117,262 262,262l0 0 53 0 0 105 -315 0 0 210 315 0 0 105 210 0 0 -105 53 0c145,0 262,-117 262,-262 0,-145 -117,-263 -262,-263l0 0 -53 0 0 -105zm0 315l53 0 0 0c29,0 52,24 52,53 0,29 -23,52 -52,52l-53 0 0 -105z"/>
  <rect class="fil1 str0" x="3" y="3" width="1050" height="1050"/>
 </g>
</svg>
