<?xml version="1.0" encoding="UTF-8"?>
<!DOCTYPE svg PUBLIC "-//W3C//DTD SVG 1.0//EN" "http://www.w3.org/TR/2001/REC-SVG-20010904/DTD/svg10.dtd">
<!-- Creator: CorelDRAW X8 -->
<svg xmlns="http://www.w3.org/2000/svg" xml:space="preserve" width="100%" height="100%" version="1.0" style="shape-rendering:geometricPrecision; text-rendering:geometricPrecision; image-rendering:optimizeQuality; fill-rule:evenodd; clip-rule:evenodd"
viewBox="0 0 1057 1057"
 xmlns:xlink="http://www.w3.org/1999/xlink">
 <defs>
  <style type="text/css">
   <![CDATA[
    .str0 {stroke:black;stroke-width:6.94488}
    .fil1 {fill:none}
    .fil0 {fill:#848688}
   ]]>
  </style>
 </defs>
 <g id="Layer_x0020_1">
  <metadata id="CorelCorpID_0Corel-Layer"/>
  <path class="fil0" d="M372 634c-28,0 -51,23 -51,52 0,29 23,52 51,52 105,0 210,1 314,1 29,0 53,-23 53,-52 0,-29 -24,-53 -53,-53 -26,0 -255,0 -314,0zm0 315c-82,0 -155,-37 -203,-96 -38,-45 -61,-103 -61,-167 0,-93 49,-174 122,-221 -11,-29 -18,-61 -18,-94 0,-145 118,-263 263,-263 35,0 73,0 108,0 127,0 233,91 257,211 -157,0 -207,0 -365,0 -29,0 -52,23 -52,52 0,29 23,52 52,52l211 0c29,0 52,-23 52,-51l211 0c-1,57 -19,111 -53,157 34,46 53,101 53,158 0,87 -1,174 -1,262 -47,0 -92,-13 -130,-35 -38,22 -82,35 -128,35 -112,0 -203,0 -318,0z"/>
  <rect class="fil1 str0" x="3" y="3" width="1050" height="1050"/>
 </g>
</svg>
