<?xml version="1.0" encoding="UTF-8"?>
<!DOCTYPE svg PUBLIC "-//W3C//DTD SVG 1.0//EN" "http://www.w3.org/TR/2001/REC-SVG-20010904/DTD/svg10.dtd">
<!-- Creator: CorelDRAW X8 -->
<svg xmlns="http://www.w3.org/2000/svg" xml:space="preserve" width="100%" height="100%" version="1.0" style="shape-rendering:geometricPrecision; text-rendering:geometricPrecision; image-rendering:optimizeQuality; fill-rule:evenodd; clip-rule:evenodd"
viewBox="0 0 1057 1057"
 xmlns:xlink="http://www.w3.org/1999/xlink">
 <defs>
  <style type="text/css">
   <![CDATA[
    .str0 {stroke:black;stroke-width:6.94488}
    .fil1 {fill:none}
    .fil0 {fill:#848688}
   ]]>
  </style>
 </defs>
 <g id="Layer_x0020_1">
  <metadata id="CorelCorpID_0Corel-Layer"/>
  <path class="fil0" d="M686 634l-3 0 0 0 -102 0 -257 0c24,-120 130,-210 257,-210 3,0 7,0 10,0l95 0 0 0c29,0 52,-24 52,-53 0,-29 -23,-52 -52,-52l-257 0 0 0 -58 0c-28,0 -52,22 -52,51l0 0 0 1 -211 0c0,-145 118,-262 263,-262l0 0 316 0 0 0c145,0 261,118 261,262 0,145 -126,263 -262,263zm-51 105l-210 0 0 210 210 0 0 -210z"/>
  <rect class="fil1 str0" x="3" y="3" width="1050" height="1050"/>
 </g>
</svg>
