<?xml version="1.0" encoding="UTF-8"?>
<!DOCTYPE svg PUBLIC "-//W3C//DTD SVG 1.0//EN" "http://www.w3.org/TR/2001/REC-SVG-20010904/DTD/svg10.dtd">
<!-- Creator: CorelDRAW X8 -->
<svg xmlns="http://www.w3.org/2000/svg" xml:space="preserve" width="100%" height="100%" version="1.0" style="shape-rendering:geometricPrecision; text-rendering:geometricPrecision; image-rendering:optimizeQuality; fill-rule:evenodd; clip-rule:evenodd"
viewBox="0 0 1057 1057"
 xmlns:xlink="http://www.w3.org/1999/xlink">
 <defs>
  <style type="text/css">
   <![CDATA[
    .str0 {stroke:black;stroke-width:6.94488}
    .fil1 {fill:none}
    .fil0 {fill:#848688}
   ]]>
  </style>
 </defs>
 <g id="Layer_x0020_1">
  <metadata id="CorelCorpID_0Corel-Layer"/>
  <path class="fil0" d="M946 526l1 2 -1 3 0 3 0 0c-2,229 -189,414 -420,414l-420 0 0 -209 420 0c79,0 147,-42 183,-106l-340 0 0 0c-145,0 -263,-117 -263,-262 0,-145 118,-263 263,-263l3 0 312 0 1 0 0 1c145,0 262,117 262,262l-1 0 0 155zm-210 -103l0 -52 0 0c0,-29 -23,-52 -52,-52l0 0 -257 0 0 -1 -58 0 0 1c-29,0 -52,23 -52,52 0,29 23,52 52,52l257 0 0 0 110 0z"/>
  <rect class="fil1 str0" x="3" y="3" width="1050" height="1050"/>
 </g>
</svg>
