<?xml version="1.0" encoding="UTF-8"?>
<!DOCTYPE svg PUBLIC "-//W3C//DTD SVG 1.0//EN" "http://www.w3.org/TR/2001/REC-SVG-20010904/DTD/svg10.dtd">
<!-- Creator: CorelDRAW X8 -->
<svg xmlns="http://www.w3.org/2000/svg" xml:space="preserve" width="100%" height="100%" version="1.0" style="shape-rendering:geometricPrecision; text-rendering:geometricPrecision; image-rendering:optimizeQuality; fill-rule:evenodd; clip-rule:evenodd"
viewBox="0 0 1057 1057"
 xmlns:xlink="http://www.w3.org/1999/xlink">
 <defs>
  <style type="text/css">
   <![CDATA[
    .str0 {stroke:black;stroke-width:6.94488}
    .fil1 {fill:none}
    .fil0 {fill:#848688}
   ]]>
  </style>
 </defs>
 <g id="Layer_x0020_1">
  <metadata id="CorelCorpID_0Corel-Layer"/>
  <path class="fil0" d="M371 949c59,0 114,-20 157,-53 44,33 99,53 158,53 145,0 262,-118 262,-263l0 -315c-1,-145 -116,-262 -262,-262 -105,0 -209,0 -314,0 -145,0 -264,116 -264,262l211 0c2,-29 21,-52 52,-52 105,0 210,0 315,0 28,0 52,22 52,51 1,105 0,211 0,316l0 0 0 1 0 0 0 2 0 1 0 0 0 0 0 0c-2,27 -26,48 -54,49 -21,0 -41,-11 -51,-31l0 -284 -262 0c-146,2 -263,115 -263,262 0,145 118,263 263,263zm0 -210c29,0 53,-24 53,-53l0 -53 -52 0c-30,1 -54,23 -54,53 0,29 24,53 53,53z"/>
  <rect class="fil1 str0" x="3" y="3" width="1050" height="1050"/>
 </g>
</svg>
