<?xml version="1.0" encoding="UTF-8"?>
<!DOCTYPE svg PUBLIC "-//W3C//DTD SVG 1.0//EN" "http://www.w3.org/TR/2001/REC-SVG-20010904/DTD/svg10.dtd">
<!-- Creator: CorelDRAW X8 -->
<svg xmlns="http://www.w3.org/2000/svg" xml:space="preserve" width="100%" height="100%" version="1.0" style="shape-rendering:geometricPrecision; text-rendering:geometricPrecision; image-rendering:optimizeQuality; fill-rule:evenodd; clip-rule:evenodd"
viewBox="0 0 1057 1057"
 xmlns:xlink="http://www.w3.org/1999/xlink">
 <defs>
  <style type="text/css">
   <![CDATA[
    .str0 {stroke:black;stroke-width:6.94488}
    .fil1 {fill:none}
    .fil0 {fill:#848688}
   ]]>
  </style>
 </defs>
 <g id="Layer_x0020_1">
  <metadata id="CorelCorpID_0Corel-Layer"/>
  <path class="fil0" d="M110 108l210 0 368 0c145,0 262,118 262,263 0,59 -19,114 -52,157 33,44 52,99 52,158 0,145 -117,262 -262,262l0 0 -368 0 -210 0 0 -210 0 -105 0 -210 0 -105 0 -210zm210 630l111 0 0 0 257 0c29,0 52,-23 52,-52 0,-29 -23,-52 -52,-52l0 -1 -257 0 0 0 -111 0 0 105zm0 -315l111 0 0 0 257 0c29,0 52,-23 52,-52 0,-29 -23,-52 -52,-52l0 -1 -257 0 -111 0 0 105z"/>
  <rect class="fil1 str0" x="3" y="3" width="1050" height="1050"/>
 </g>
</svg>
