<?xml version="1.0" encoding="UTF-8"?>
<!DOCTYPE svg PUBLIC "-//W3C//DTD SVG 1.0//EN" "http://www.w3.org/TR/2001/REC-SVG-20010904/DTD/svg10.dtd">
<!-- Creator: CorelDRAW X8 -->
<svg xmlns="http://www.w3.org/2000/svg" xml:space="preserve" width="100%" height="100%" version="1.0" style="shape-rendering:geometricPrecision; text-rendering:geometricPrecision; image-rendering:optimizeQuality; fill-rule:evenodd; clip-rule:evenodd"
viewBox="0 0 1057 1057"
 xmlns:xlink="http://www.w3.org/1999/xlink">
 <defs>
  <style type="text/css">
   <![CDATA[
    .str0 {stroke:black;stroke-width:6.94488}
    .fil1 {fill:none}
    .fil0 {fill:#848688}
   ]]>
  </style>
 </defs>
 <g id="Layer_x0020_1">
  <metadata id="CorelCorpID_0Corel-Layer"/>
  <path class="fil0" d="M528 108c232,0 420,189 420,420 0,78 -20,150 -57,213l57 57 0 150 -146 0 -34 -33 -1 0 -25 -25c-63,37 -136,58 -214,58 -231,0 -420,-188 -420,-420 0,-231 189,-420 420,-420zm183 454l1 -1 20 20c4,-17 6,-34 6,-53 0,-116 -94,-210 -210,-210 -115,0 -210,94 -210,210 0,116 95,210 210,210 19,0 38,-2 55,-7l-53 -52 0 -151 147 0 34 34z"/>
  <rect class="fil1 str0" x="3" y="3" width="1050" height="1050"/>
 </g>
</svg>
